# xmcd
#
# Track frame offsets: 
#        150
#        12462
#        28279
#        45753
#        61233
#        77820
#        97519
#        114741
#        129820
#        143980
#        159702
#        176782
#        194328
#        208537
#        224776
#        240040
#        253399
#        271789
#
# Disc length: 3869 seconds
#
# Revision: 0
# Processed by: cddbd v1.5.2PL0 Copyright (c) Steve Scherf et al.
# Submitted via: ExactAudioCopy v0.99pb3
#
DISCID=f90f1b12
DTITLE=鄭秀文 - Feel So Good
DYEAR=2000
DGENRE=Pop
TTITLE0=Feels Like 1998
TTITLE1=哭泣遊戲
TTITLE2=祝大家好過
TTITLE3=愛
TTITLE4=理想對像
TTITLE5=心血來潮
TTITLE6=有問題
TTITLE7=Feel So Good
TTITLE8=我是貓
TTITLE9=戰俘
TTITLE10=記得
TTITLE11=I Cross My Heart
TTITLE12=飛男飛女
TTITLE13=我們的主題曲
TTITLE14=女人的本色
TTITLE15=星秀傳說
TTITLE16=親密關係
TTITLE17=談情說愛
EXTD=
EXTT0=
EXTT1=
EXTT2=
EXTT3=
EXTT4=
EXTT5=
EXTT6=
EXTT7=
EXTT8=
EXTT9=
EXTT10=
EXTT11=
EXTT12=
EXTT13=
EXTT14=
EXTT15=
EXTT16=
EXTT17=
PLAYORDER=
